PathFileType	3	(X/Y/Z)	F:\ViconData\AntennenMessung\Messung1\Session1\ID01.trc
DataRate	CameraRate	NumFrames	NumMarkers	Units	OrigDataRate	OrigDataStartFrame	OrigNumFrames
120.0	120.0	6	70	mm	120.0	1	957	
Frame#	Time	Ashort			Along			Atop			A4			Bshort			Blong			Btop			B4			Cshort			Clong			Ctop			C4			Dshort			Dlong			Dtop			D4			Eshort			Elong			Etop			E4			Fshort			Flong			Ftop			F4			Gshort			Glong			Gtop			G4			Hshort			Hlong			Htop			H4			I1			I2			I3			I4			I5			WandAshort			WandAlong			WandAtop			WandA4			WandA15			WandBshort			WandB4			WandB5			WandBtop			WandBlong			WandCshort			WandClong			WandCtop			WandC4			WandC5			Acenter			Aantenna			Bcenter			Bantenna			Ccenter			Cantenna			Dcenter			Dantenna			Ecenter			Eantenna			Fcenter			Fantenna			Gcenter			Gantenna			Hcenter			Hantenna			Icenter			Iantenna			
		X1	Y1	Z1	X2	Y2	Z2	X3	Y3	Z3	X4	Y4	Z4	X5	Y5	Z5	X6	Y6	Z6	X7	Y7	Z7	X8	Y8	Z8	X9	Y9	Z9	X10	Y10	Z10	X11	Y11	Z11	X12	Y12	Z12	X13	Y13	Z13	X14	Y14	Z14	X15	Y15	Z15	X16	Y16	Z16	X17	Y17	Z17	X18	Y18	Z18	X19	Y19	Z19	X20	Y20	Z20	X21	Y21	Z21	X22	Y22	Z22	X23	Y23	Z23	X24	Y24	Z24	X25	Y25	Z25	X26	Y26	Z26	X27	Y27	Z27	X28	Y28	Z28	X29	Y29	Z29	X30	Y30	Z30	X31	Y31	Z31	X32	Y32	Z32	X33	Y33	Z33	X34	Y34	Z34	X35	Y35	Z35	X36	Y36	Z36	X37	Y37	Z37	X38	Y38	Z38	X39	Y39	Z39	X40	Y40	Z40	X41	Y41	Z41	X42	Y42	Z42	X43	Y43	Z43	X44	Y44	Z44	X45	Y45	Z45	X46	Y46	Z46	X47	Y47	Z47	X48	Y48	Z48	X49	Y49	Z49	X50	Y50	Z50	X51	Y51	Z51	X52	Y52	Z52	X53	Y53	Z53	X54	Y54	Z54	X55	Y55	Z55	X56	Y56	Z56	X57	Y57	Z57	X58	Y58	Z58	X59	Y59	Z59	X60	Y60	Z60	X61	Y61	Z61	X62	Y62	Z62	X63	Y63	Z63	X64	Y64	Z64	X65	Y65	Z65	X66	Y66	Z66	X67	Y67	Z67	X68	Y68	Z68	X69	Y69	Z69	X70	Y70	Z70	
1	0	-1038.2257	214.43231	-1644.1191	-1109.2974	203.755	-1599.5989	-1063.5487	172.64304	-1625.5094	-1054.1143	262.08194	-1634.9589	-1352.8392	235.2583	1004.0322	-1281.3195	227.10956	1052.5674	-1323.04	194.17235	1020.7964	-1284.5845	287.91382	1052.7275	814.15063	187.72672	1209.4171	892.14166	178.51009	1179.2776	844.18201	145.69312	1198.1552	860.63916	292.3233	1167.1929	1115.9427	209.90009	-1401.748	1056.271	194.24673	-1460.2798	1095.0082	162.21686	-1423.8595	1069.9469	238.62492	-1425.9697	-1204.5685	1685.9871	-1563.1252	-1129.072	1688.1967	-1605.9855	-1173.0868	1724.4183	-1581.9978	-1133.5138	1581.0424	-1603.4506	-1239.7694	1699.4374	1119.3033	-1309.4146	1698.937	1071.7888	-1270.3218	1736.2635	1096.6636	-1244.7054	1593.8195	1106.5653	988.88098	1664.1727	1162.2845	955.45959	1701.1245	1182.3865	921.83679	1662.2836	1214.8538	939.73584	1659.4229	1160.0087	999.29053	1668.5114	-1579.491	1059.0649	1670.2129	-1518.6985	1025.1237	1707.9554	-1551.1569	1059.3175	1672.1931	-1585.6294	-544.87604	141.34239	-348.91095	-539.24634	147.26607	-432.58966	-573.68762	143.2937	-386.94696	-494.99844	141.90521	-382.83304	-541.62146	107.16358	-389.49265																																														-1068.7977	209.83936	-1624.9681	-1074.2468	248.45271	-1624.4066	-1321.7183	231.71246	1025.1516	-1320.3552	270.42896	1029.6433	847.97729	183.72922	1196.3447	851.84515	222.49306	1194.4996	1088.797	202.77911	-1428.375	1082.9293	241.09848	-1432.641	-1171.828	1686.9452	-1581.7124	-1170.5188	1647.9683	-1581.4155	-1270.9761	1699.2131	1098.0129	-1271.6644	1660.2451	1099.432	951.5097	1705.4916	1184.7621	970.65692	1733.3726	1165.3448	1026.6949	1669.2914	-1551.6198	1028.2784	1630.3264	-1552.0862	-542.46124	143.8833	-384.80435	-503.5596	144.61783	-382.1351
2	0.0083333333	-1038.2069	214.43604	-1644.1223	-1109.3038	203.71526	-1599.5906	-1063.5594	172.63699	-1625.5063	-1054.1371	262.07123	-1634.9443	-1352.8794	235.22078	1004.0674	-1281.309	227.23497	1052.4294	-1323.109	194.16122	1020.8376	-1284.5938	287.87958	1052.7292	814.1712	187.69466	1209.4009	892.16101	178.50044	1179.2716	844.22205	145.71486	1198.1277	860.59412	292.66882	1167.1803	1115.9357	209.8891	-1401.7437	1056.2523	194.22365	-1460.3031	1095.0436	162.16888	-1423.7601	1069.941	238.62097	-1425.9628	-1204.4536	1685.8846	-1563.3584	-1129.1265	1688.382	-1606.7738	-1173.082	1724.4257	-1581.9996	-1133.5361	1581.0978	-1603.5245	-1239.7545	1699.4386	1119.3041	-1309.42	1698.9392	1071.7898	-1270.3179	1736.2413	1096.6554	-1244.7095	1593.6637	1106.5819	988.91998	1664.1873	1162.2914	955.41589	1701.1208	1182.4535	921.70984	1662.3405	1214.7369	939.74646	1659.3907	1159.9789	999.29071	1668.5261	-1579.4873	1059.0748	1670.2141	-1518.6919	1025.1259	1707.9463	-1551.1556	1059.3259	1672.1968	-1585.627	-544.89062	141.37704	-348.91772	-539.23737	147.29192	-432.59177	-573.78784	143.63063	-386.80081	-495.00208	141.90674	-382.82819	-541.64819	107.17255	-389.52182																																														-1068.8174	209.82025	-1624.9493	-1074.2773	248.43184	-1624.371	-1321.782	231.75093	1025.0807	-1320.4147	270.48099	1029.4525	848.0061	183.70584	1196.3296	851.86731	222.47084	1194.4949	1088.8536	202.78069	-1428.3157	1083.0131	241.10054	-1432.6141	-1171.9073	1686.9635	-1582.1166	-1170.6852	1647.9828	-1582.2383	-1270.9762	1699.2147	1098.0098	-1271.6691	1660.2468	1099.4351	951.3869	1705.562	1184.8781	970.56976	1733.4998	1165.5776	1026.6918	1669.2997	-1551.6227	1028.2708	1630.3345	-1552.0934	-542.47534	143.90405	-384.66592	-503.56717	144.24384	-382.01315
3	0.016666667	-1038.1769	214.32857	-1644.1923	-1109.313	203.73541	-1599.5995	-1063.5349	172.64125	-1625.5098	-1054.1173	262.07651	-1634.9291	-1352.8679	235.19998	1004.0163	-1281.3828	227.02353	1052.5968	-1323.092	194.12704	1020.8419	-1284.5061	287.87128	1052.6348	814.15869	187.71126	1209.3793	892.45825	178.4872	1179.2478	844.19293	145.71603	1198.0645	860.60284	292.64957	1167.2111	1115.9486	209.89494	-1401.75	1056.2632	194.24226	-1460.2974	1094.9921	162.10486	-1423.8331	1069.9403	238.60223	-1425.9628	-1204.5461	1685.9863	-1563.1218	-1129.0886	1688.2192	-1606.0045	-1173.0793	1724.4352	-1581.9988	-1133.5292	1581.0776	-1603.4913	-1239.755	1699.4388	1119.3096	-1309.4344	1698.9669	1071.7994	-1270.3123	1736.2418	1096.6541	-1244.705	1593.8087	1106.4629	988.92883	1664.1836	1162.2887	955.54132	1701.0088	1182.3596	921.6745	1662.3473	1214.7903	939.73901	1659.3815	1159.9889	999.30524	1668.4998	-1579.4963	1059.0718	1670.207	-1518.6957	1025.1224	1707.947	-1551.1561	1059.3345	1672.2106	-1585.6265	-544.89264	141.37868	-348.93265	-539.2467	147.26842	-432.57962	-573.74066	143.82115	-386.76175	-494.98932	141.89867	-382.82132	-541.64197	107.18798	-389.51691																																														-1068.7585	209.77454	-1625.0216	-1074.1908	248.39101	-1624.514	-1321.7419	231.6398	1025.1692	-1320.3486	270.35815	1029.6354	848.01135	183.72322	1196.3521	851.90601	222.48895	1194.6055	1088.7936	202.77348	-1428.3871	1082.9532	241.09418	-1432.6781	-1171.8138	1686.9548	-1581.7235	-1170.4978	1647.978	-1581.4373	-1270.9884	1699.2272	1098.0133	-1271.7002	1660.26	1099.4442	951.38257	1705.5955	1184.8595	970.56323	1733.5181	1165.5352	1026.7031	1669.2823	-1551.6243	1028.2963	1630.3176	-1552.0962	-542.48199	143.89336	-384.64676	-503.57111	143.98326	-382.01404
4	0.025	-1038.2151	214.43451	-1644.1233	-1109.17	203.48772	-1599.7101	-1063.3622	171.67195	-1625.3586	-1054.134	262.06049	-1634.9265	-1352.965	235.16493	1004.1104	-1281.3519	227.09035	1052.5636	-1323.1049	194.09019	1020.866	-1284.5635	287.88556	1052.7411	814.17224	187.67587	1209.396	892.44818	178.44426	1179.3014	844.57306	145.21904	1198.2749	860.66913	292.5668	1167.3082	1115.9388	209.90677	-1401.7538	1056.2603	194.25664	-1460.2954	1095.0201	162.16232	-1423.824	1069.9397	238.60774	-1425.9786	-1204.5626	1685.9817	-1563.1182	-1129.0663	1688.2114	-1606.0034	-1173.0903	1724.4298	-1582.0005	-1133.5222	1581.0581	-1603.4536	-1239.7712	1699.4545	1119.3085	-1309.4312	1698.9558	1071.7928	-1270.3018	1736.2338	1096.6509	-1244.7029	1593.7394	1106.5425	988.91254	1664.1968	1162.2948	957.40918	1700.2183	1183.7118	921.6853	1662.3596	1214.7773	939.74323	1659.3928	1159.9668	999.29181	1668.5085	-1579.4843	1059.083	1670.2167	-1518.6997	1025.1228	1707.946	-1551.1554	1059.3184	1672.1899	-1585.6284	-544.90393	141.36453	-348.9292	-539.242	147.28531	-432.58575	-573.78979	143.64105	-386.78839	-495.00769	141.90472	-382.82507	-541.63007	107.17347	-389.52112																																														-1068.937	209.69476	-1624.8933	-1074.5942	248.27937	-1624.4213	-1321.7998	231.65096	1025.1965	-1320.4545	270.37122	1029.6608	848.33154	183.64723	1196.2627	852.1228	222.40942	1194.2332	1088.8152	202.79387	-1428.3606	1082.9631	241.1142	-1432.6392	-1171.8219	1686.9485	-1581.7162	-1170.5031	1647.972	-1581.4208	-1270.974	1699.2311	1098.0248	-1271.6821	1660.2643	1099.4717	952.51489	1705.8143	1187.0391	972.53137	1734.0278	1169.0295	1026.7	1669.2914	-1551.6206	1028.2898	1630.3267	-1552.0896	-542.48621	143.89279	-384.65192	-503.57794	144.20569	-381.99646
5	0.033333333	-1038.1766	214.31171	-1644.1927	-1109.1736	203.43184	-1599.6895	-1063.4531	173.29858	-1625.8281	-1054.1472	262.05185	-1634.9321	-1352.84	235.16751	1004.0276	-1281.4478	227.40828	1052.3636	-1323.0752	194.13123	1020.8522	-1284.6221	287.8667	1052.7859	814.11316	187.66893	1209.3837	892.35052	178.37871	1179.2717	844.62286	145.37492	1198.1561	860.638	292.58237	1167.2173	1115.9319	209.89668	-1401.7552	1056.2734	194.24963	-1460.2817	1095.0298	162.17279	-1423.7992	1069.9023	238.54424	-1426.0001	-1204.4659	1685.8882	-1563.3468	-1129.0796	1688.2096	-1605.9989	-1173.0823	1724.423	-1581.9979	-1133.514	1581.0646	-1603.4788	-1239.7213	1699.3737	1119.2886	-1309.4288	1698.9696	1071.802	-1270.3282	1736.2542	1096.6643	-1244.7042	1593.756	1106.4928	988.87463	1664.146	1162.2528	957.4306	1700.2136	1183.6809	921.7771	1662.3228	1214.7943	939.7392	1659.3708	1159.9631	999.28809	1668.5178	-1579.4996	1059.0574	1670.199	-1518.6901	1025.1134	1707.9501	-1551.1539	1059.323	1672.1984	-1585.6195	-544.90503	141.36732	-348.92639	-539.24963	147.26103	-432.56567	-573.77203	143.61246	-386.80856	-495.09717	142.31859	-383.53198	-541.59222	107.22119	-389.55377																																														-1068.5867	209.65154	-1625.1306	-1074.0389	248.26141	-1624.3898	-1321.813	231.79535	1025.0343	-1320.5149	270.53564	1029.3358	848.40326	183.59718	1196.186	852.23694	222.35686	1194.1884	1088.8323	202.78908	-1428.3405	1082.9851	241.10947	-1432.6251	-1171.8231	1686.8933	-1581.8152	-1170.5155	1647.9158	-1581.6257	-1271.007	1699.1921	1097.9758	-1271.7205	1660.2231	1099.355	952.61292	1705.7396	1186.9637	972.62726	1733.9199	1168.9003	1026.683	1669.2883	-1551.6278	1028.265	1630.3232	-1552.1055	-542.48785	143.88631	-384.67395	-503.5798	144.2269	-382.01917
6	0.041666667	-1038.1855	214.34659	-1644.2134	-1109.2866	203.65253	-1599.5847	-1063.3184	172.336	-1625.8248	-1054.1132	262.07721	-1634.9512	-1352.9226	235.23087	1004.0192	-1281.2981	227.06822	1052.4685	-1323.1132	194.15294	1020.812	-1284.5249	287.94574	1052.673	814.16486	187.63754	1209.443	892.43048	178.48018	1179.2676	844.18176	145.65703	1198.0853	860.66351	292.6123	1167.2871	1115.9192	209.86319	-1401.7356	1056.2623	194.2235	-1460.2554	1095.0101	162.09761	-1423.8269	1069.9337	238.6205	-1425.9526	-1204.5608	1685.9863	-1563.1228	-1129.0837	1688.207	-1606.012	-1173.0864	1724.4277	-1581.9919	-1133.5398	1581.1129	-1603.5261	-1239.7156	1699.3507	1119.2798	-1309.3998	1698.9209	1071.7833	-1270.3093	1736.2207	1096.6559	-1244.6964	1593.7722	1106.479	988.8927	1664.1862	1162.2719	957.40741	1700.2756	1183.692	921.72919	1662.3827	1214.8085	939.76038	1659.4222	1159.9291	999.27045	1668.5253	-1579.4891	1059.0551	1670.203	-1518.6779	1025.1184	1707.9594	-1551.1556	1059.3292	1672.2026	-1585.6251	-544.89258	141.36221	-348.93246	-539.24213	147.2906	-432.55008	-573.68256	143.29971	-386.91913	-495.12418	142.29547	-383.53699	-541.61072	107.18237	-389.54391																																														-1068.5353	209.78178	-1625.1633	-1073.916	248.40279	-1624.4812	-1321.7438	231.67758	1025.1095	-1320.3304	270.39886	1029.5441	847.98267	183.68073	1196.4043	851.85803	222.44984	1194.6906	1088.7885	202.75058	-1428.3491	1082.9238	241.07074	-1432.6118	-1171.8301	1686.9492	-1581.7217	-1170.5237	1647.9722	-1581.4407	-1270.9777	1699.1577	1097.9716	-1271.6802	1660.1887	1099.3551	952.57678	1705.8126	1186.9783	972.59375	1733.9941	1168.9193	1026.6722	1669.2941	-1551.6167	1028.2383	1630.3282	-1552.0812	-542.47101	143.90285	-384.76727	-503.57062	144.65457	-382.08533
